<svg xmlns="http://www.w3.org/2000/svg" xmlns:xlink="http://www.w3.org/1999/xlink" preserveAspectRatio="xMidYMid meet" version="1.0" viewBox="109.5 81.8 207.0 252.3" zoomAndPan="magnify" style="fill: rgb(0, 0, 0);"><g id="__id4_sctk02uajb"><path d="M122.871,287.395c-3.59,0-6.5-2.91-6.5-6.5V121.452c-0.238-1.521-0.354-2.958-0.354-4.376 c0-15.845,12.891-28.736,28.735-28.736h136.569c15.845,0,28.736,12.891,28.736,28.736c0,1.417-0.116,2.854-0.354,4.377 v159.442c0,3.59-2.91,6.5-6.5,6.5H122.871z" style="fill: rgb(96, 168, 255);"></path></g><g id="__id5_sctk02uajb"><path d="M281.322,94.84c12.279,0,22.236,9.955,22.236,22.236c0,1.313-0.136,2.594-0.354,3.845v159.974 H122.871V120.92c-0.218-1.251-0.354-2.531-0.354-3.845c0-12.281,9.955-22.236,22.235-22.236H281.322 M281.322,81.84 H144.753c-19.429,0-35.235,15.807-35.235,35.236c0,1.593,0.116,3.193,0.354,4.859v158.96c0,7.18,5.82,13,13,13h180.333 c7.18,0,13-5.82,13-13V121.935c0.238-1.667,0.354-3.268,0.354-4.859C316.558,97.646,300.751,81.84,281.322,81.84 L281.322,81.84z" style="fill: rgb(0, 40, 114);"></path></g><g id="__id6_sctk02uajb"><path d="M147.507,280.895V94.84h-2.754c-12.28,0-22.235,9.955-22.235,22.236 c0,1.313,0.136,2.594,0.354,3.845v159.974H147.507z" style="fill: rgb(69, 134, 255);"></path></g><g id="__id7_sctk02uajb"><path d="M144.753,309.63c-15.845,0-28.735-12.891-28.735-28.736s12.891-28.736,28.735-28.736h136.569 c15.845,0,28.736,12.891,28.736,28.736s-12.891,28.736-28.736,28.736H144.753z" style="fill: rgb(255, 255, 255);"></path></g><g id="__id8_sctk02uajb"><path d="M281.322,258.659c12.279,0,22.236,9.955,22.236,22.236s-9.957,22.236-22.236,22.236H144.753 c-12.28,0-22.235-9.955-22.235-22.236s9.955-22.236,22.235-22.236H281.322 M281.322,245.659H144.753 c-19.429,0-35.235,15.807-35.235,35.236s15.807,35.236,35.235,35.236h136.569c19.429,0,35.236-15.807,35.236-35.236 S300.751,245.659,281.322,245.659L281.322,245.659z" style="fill: rgb(0, 40, 114);"></path></g><g id="__id9_sctk02uajb"><path d="M122.637,283.197c1.152,11.198,10.613,19.933,22.116,19.933h136.569 c11.502,0,20.964-8.735,22.116-19.933H122.637z" style="fill: rgb(166, 206, 255);"></path></g><g><g id="__id10_sctk02uajb"><path d="M189.125,327.658c-1.347,0-2.686-0.418-3.817-1.238l-11.088-8.041l-11.088,8.041 c-1.131,0.82-2.47,1.238-3.816,1.238c-1.009,0-2.021-0.234-2.953-0.71c-2.176-1.11-3.546-3.347-3.546-5.79v-29.946 c0-3.59,2.91-6.5,6.5-6.5h29.808c3.59,0,6.5,2.91,6.5,6.5v29.946c0,2.443-1.37,4.68-3.547,5.79 C191.146,327.423,190.133,327.658,189.125,327.658z" style="fill: rgb(96, 168, 255);"></path></g><g id="__id11_sctk02uajb"><path d="M189.124,291.211v29.946l-14.904-10.809l-14.904,10.809v-29.946H189.124 M189.124,278.211h-29.808 c-7.18,0-13,5.82-13,13v29.946c0,4.887,2.74,9.36,7.093,11.581c1.864,0.951,3.89,1.419,5.906,1.419 c2.693,0,5.372-0.835,7.633-2.476l7.272-5.274l7.272,5.274c2.262,1.64,4.94,2.476,7.634,2.476 c2.016,0,4.041-0.469,5.905-1.419c4.353-2.22,7.093-6.694,7.093-11.581v-29.946 C202.124,284.032,196.304,278.211,189.124,278.211L189.124,278.211z" style="fill: rgb(0, 40, 114);"></path></g></g><g id="__id12_sctk02uajb"><path d="M302.692,291.604H163.868c-3.59,0-6.5-2.91-6.5-6.5s2.91-6.5,6.5-6.5h138.824 c3.59,0,6.5,2.91,6.5,6.5S306.282,291.604,302.692,291.604z" style="fill: rgb(0, 40, 114);"></path></g><g id="__id13_sctk02uajb" style="fill: rgb(0, 40, 114);"><path d="M265.24,140.111h-91.02c-3.59,0-6.5-2.91-6.5-6.5s2.91-6.5,6.5-6.5h91.02c3.59,0,6.5,2.91,6.5,6.5 S268.83,140.111,265.24,140.111z" style="fill: inherit;"></path><path d="M242.159,173.458h-44.858c-3.59,0-6.5-2.91-6.5-6.5s2.91-6.5,6.5-6.5h44.858 c3.59,0,6.5,2.91,6.5,6.5S245.749,173.458,242.159,173.458z" style="fill: inherit;"></path></g></svg>